<svg xmlns="http://www.w3.org/2000/svg" width="100%" height="25" viewBox="0 0 1000 25" preserveAspectRatio="none">
  <rect width="100%" height="25" fill="none"/>
  <polygon points="0,0 100,25 200,0 300,25 400,0 500,25 600,0 700,25 800,0 900,25 1000,0 1000,5 950,20 850,5 750,20 650,5 550,20 450,5 350,20 250,5 150,20 50,5 0,20" fill="#00BCD4" />
  <polygon points="0,5 50,20 150,5 250,20 350,5 450,20 550,5 650,20 750,5 850,20 950,5 1000,20 1000,25 900,25 800,25 700,25 600,25 500,25 400,25 300,25 200,25 100,25 0,25" fill="#007B8C" />
</svg>
