<svg xmlns="http://www.w3.org/2000/svg" width="1000" height="80" viewBox="0 0 1000 80">
  <defs>
    <linearGradient id="chip" x1="0" y1="0" x2="1" y2="1">
      <stop offset="0%" stop-color="#22d3ee"/>
      <stop offset="100%" stop-color="#3b82f6"/>
    </linearGradient>
    <style>
      .c { font: 600 16px 'Segoe UI', Roboto, Helvetica, Arial, sans-serif; fill: #e6f2ff; }
      .g { fill: none; stroke: url(#chip); stroke-width:2; }
    </style>
  </defs>
  <g transform="translate(10,20)">
    <rect rx="14" ry="14" x="0" y="0" width="120" height="40" class="g"/>
    <text class="c" x="60" y="26" text-anchor="middle">TypeScript</text>

    <rect rx="14" ry="14" x="140" y="0" width="100" height="40" class="g"/>
    <text class="c" x="190" y="26" text-anchor="middle">Python</text>

    <rect rx="14" ry="14" x="260" y="0" width="120" height="40" class="g"/>
    <text class="c" x="320" y="26" text-anchor="middle">Google Cloud</text>

    <rect rx="14" ry="14" x="400" y="0" width="110" height="40" class="g"/>
    <text class="c" x="455" y="26" text-anchor="middle">Vertex AI</text>

    <rect rx="14" ry="14" x="530" y="0" width="110" height="40" class="g"/>
    <text class="c" x="585" y="26" text-anchor="middle">BigQuery</text>

    <rect rx="14" ry="14" x="660" y="0" width="130" height="40" class="g"/>
    <text class="c" x="725" y="26" text-anchor="middle">Elasticsearch</text>

    <rect rx="14" ry="14" x="810" y="0" width="100" height="40" class="g"/>
    <text class="c" x="860" y="26" text-anchor="middle">Fivetran</text>

    <rect rx="14" ry="14" x="930" y="0" width="70" height="40" class="g"/>
    <text class="c" x="965" y="26" text-anchor="middle">Vercel</text>
  </g>
</svg>
