<svg xmlns="http://www.w3.org/2000/svg" width="1200" height="210" viewBox="0 0 1200 210">
  <defs>
    <linearGradient id="chip" x1="0" y1="0" x2="1" y2="1">
      <stop offset="0%" stop-color="#22d3ee"/>
      <stop offset="100%" stop-color="#3b82f6"/>
    </linearGradient>
    <style>
      .c { font: 600 16px 'Segoe UI', Roboto, Helvetica, Arial, sans-serif; fill: #e6f2ff; }
      .g { fill: none; stroke: url(#chip); stroke-width:2; }
    </style>
  </defs>
  <g transform="translate(10,20)">
    <rect rx="14" ry="14" x="0" y="0" width="120" height="40" class="g"/>
    <text class="c" x="60" y="26" text-anchor="middle">TypeScript</text>

    <rect rx="14" ry="14" x="140" y="0" width="100" height="40" class="g"/>
    <text class="c" x="190" y="26" text-anchor="middle">Python</text>

    <rect rx="14" ry="14" x="260" y="0" width="60" height="40" class="g"/>
    <text class="c" x="290" y="26" text-anchor="middle">C</text>

    <rect rx="14" ry="14" x="330" y="0" width="70" height="40" class="g"/>
    <text class="c" x="365" y="26" text-anchor="middle">HTML</text>

    <rect rx="14" ry="14" x="420" y="0" width="90" height="40" class="g"/>
    <text class="c" x="465" y="26" text-anchor="middle">Verilog</text>
  </g>
  <g transform="translate(10,80)">
    <rect rx="14" ry="14" x="0" y="0" width="60" height="40" class="g"/>
    <text class="c" x="30" y="26" text-anchor="middle">AI</text>

    <rect rx="14" ry="14" x="80" y="0" width="60" height="40" class="g"/>
    <text class="c" x="110" y="26" text-anchor="middle">ML</text>

    <rect rx="14" ry="14" x="160" y="0" width="60" height="40" class="g"/>
    <text class="c" x="190" y="26" text-anchor="middle">ECC</text>

    <rect rx="14" ry="14" x="240" y="0" width="220" height="40" class="g"/>
    <text class="c" x="350" y="26" text-anchor="middle">Offensive Cyber Security</text>
  </g>
  <g transform="translate(10,140)">
    <rect rx="14" ry="14" x="0" y="0" width="120" height="40" class="g"/>
    <text class="c" x="60" y="26" text-anchor="middle">Google Cloud</text>

    <rect rx="14" ry="14" x="140" y="0" width="110" height="40" class="g"/>
    <text class="c" x="195" y="26" text-anchor="middle">Vertex AI</text>

    <rect rx="14" ry="14" x="270" y="0" width="110" height="40" class="g"/>
    <text class="c" x="325" y="26" text-anchor="middle">BigQuery</text>

    <rect rx="14" ry="14" x="400" y="0" width="130" height="40" class="g"/>
    <text class="c" x="465" y="26" text-anchor="middle">Elasticsearch</text>

    <rect rx="14" ry="14" x="540" y="0" width="100" height="40" class="g"/>
    <text class="c" x="590" y="26" text-anchor="middle">Fivetran</text>

    <rect rx="14" ry="14" x="650" y="0" width="70" height="40" class="g"/>
    <text class="c" x="685" y="26" text-anchor="middle">Vercel</text>

    <rect rx="14" ry="14" x="730" y="0" width="90" height="40" class="g"/>
    <text class="c" x="775" y="26" text-anchor="middle">Unity</text>
  </g>
</svg>
